<mxfile host="65bd71144e">
    <diagram id="_XykE6QZpFNbgmbgRpjM" name="Page-1">
        <mxGraphModel dx="906" dy="527" grid="1" gridSize="10" guides="1" tooltips="1" connect="1" arrows="1" fold="1" page="1" pageScale="1" pageWidth="827" pageHeight="1169" math="0" shadow="0">
            <root>
                <mxCell id="0"/>
                <mxCell id="1" parent="0"/>
                <mxCell id="2" value="&lt;b&gt;Elastic Kubernetes Service ( EKS)&lt;/b&gt;&lt;br&gt;&lt;ul&gt;&lt;li&gt;K8S is available on GCP, Azure, Linode, Datacenter&lt;/li&gt;&lt;li&gt;K8S is open-source&lt;/li&gt;&lt;li&gt;K8S Easier to migrate to other platforms than AWS&lt;/li&gt;&lt;li&gt;Large community&lt;/li&gt;&lt;li&gt;EKS is specific to AWS &amp;amp; Migration can be difficult if you are using other AWS services&lt;/li&gt;&lt;li&gt;EKS deploys and manages K8S master node&lt;/li&gt;&lt;li&gt;Automatic replications of master node and etcd is attached to each AZ master replica&lt;/li&gt;&lt;li&gt;EC2 compute fleet or worker node can be connected with master node&lt;/li&gt;&lt;li&gt;You need to manage EC2 instances yourself but there is a possibility to semi-managed&lt;/li&gt;&lt;li&gt;EKS nodegroup can be semi-managed by AWS&lt;/li&gt;&lt;li&gt;Semi-managed means container runtime and K8s processes intalled automatically&lt;/li&gt;&lt;li&gt;EKS + EC2 = Self-managed&lt;/li&gt;&lt;li&gt;EKS+NodeGroup = semi-managed&lt;/li&gt;&lt;li&gt;EKS + Fargate = Fully-managed&lt;/li&gt;&lt;li&gt;&lt;br&gt;&lt;/li&gt;&lt;/ul&gt;" style="text;html=1;align=left;verticalAlign=middle;resizable=0;points=[];autosize=1;strokeColor=none;fillColor=none;" vertex="1" parent="1">
                    <mxGeometry x="30" y="30" width="520" height="360" as="geometry"/>
                </mxCell>
                <mxCell id="42" style="edgeStyle=none;html=1;entryX=0;entryY=0.5;entryDx=0;entryDy=0;entryPerimeter=0;" edge="1" parent="1" target="41">
                    <mxGeometry relative="1" as="geometry">
                        <mxPoint x="110" y="615" as="sourcePoint"/>
                    </mxGeometry>
                </mxCell>
                <mxCell id="17" value="" style="verticalLabelPosition=bottom;html=1;verticalAlign=top;align=center;strokeColor=none;fillColor=#00BEF2;shape=mxgraph.azure.server_rack;" vertex="1" parent="1">
                    <mxGeometry x="170" y="637" width="150" height="136" as="geometry"/>
                </mxCell>
                <mxCell id="18" value="" style="verticalLabelPosition=bottom;html=1;verticalAlign=top;align=center;strokeColor=none;fillColor=#00BEF2;shape=mxgraph.azure.server_rack;" vertex="1" parent="1">
                    <mxGeometry x="170" y="463" width="150" height="150" as="geometry"/>
                </mxCell>
                <mxCell id="19" value="Docker Agent" style="whiteSpace=wrap;html=1;gradientColor=none;fillColor=#E6E6E6;strokeColor=#352c2c;gradientDirection=west;fontColor=#000000;" vertex="1" parent="1">
                    <mxGeometry x="191" y="571.5" width="50" height="35.5" as="geometry"/>
                </mxCell>
                <mxCell id="21" value="" style="edgeStyle=none;orthogonalLoop=1;jettySize=auto;html=1;entryX=0;entryY=0.5;entryDx=0;entryDy=0;entryPerimeter=0;exitX=1;exitY=0.5;exitDx=0;exitDy=0;exitPerimeter=0;" edge="1" parent="1">
                    <mxGeometry width="100" relative="1" as="geometry">
                        <mxPoint x="111" y="614.5" as="sourcePoint"/>
                        <mxPoint x="170" y="557" as="targetPoint"/>
                    </mxGeometry>
                </mxCell>
                <mxCell id="22" value="" style="edgeStyle=none;orthogonalLoop=1;jettySize=auto;html=1;entryX=0;entryY=0.5;entryDx=0;entryDy=0;entryPerimeter=0;exitX=1;exitY=0.5;exitDx=0;exitDy=0;exitPerimeter=0;" edge="1" parent="1" target="17">
                    <mxGeometry width="100" relative="1" as="geometry">
                        <mxPoint x="111" y="614.5" as="sourcePoint"/>
                        <mxPoint x="180" y="567" as="targetPoint"/>
                        <Array as="points"/>
                    </mxGeometry>
                </mxCell>
                <mxCell id="24" value="" style="verticalLabelPosition=bottom;verticalAlign=top;html=1;shape=mxgraph.infographic.shadedCube;isoAngle=15;fillColor=#d5dee1;strokeColor=none;" vertex="1" parent="1">
                    <mxGeometry x="210" y="473" width="30" height="30" as="geometry"/>
                </mxCell>
                <mxCell id="27" value="Docker Agent" style="whiteSpace=wrap;html=1;gradientColor=none;fillColor=#E6E6E6;strokeColor=#352c2c;gradientDirection=west;fontColor=#000000;" vertex="1" parent="1">
                    <mxGeometry x="191" y="733" width="50" height="35.5" as="geometry"/>
                </mxCell>
                <mxCell id="28" value="K8s&amp;nbsp;&lt;br&gt;Processes" style="whiteSpace=wrap;html=1;gradientColor=none;fillColor=#fcfcfd;strokeColor=#352c2c;gradientDirection=west;fontColor=#121111;" vertex="1" parent="1">
                    <mxGeometry x="249" y="733" width="62" height="35.5" as="geometry"/>
                </mxCell>
                <mxCell id="29" value="K8s&amp;nbsp;&lt;br&gt;Processes" style="whiteSpace=wrap;html=1;gradientColor=none;fillColor=#fcfcfd;strokeColor=#352c2c;gradientDirection=west;fontColor=#121111;" vertex="1" parent="1">
                    <mxGeometry x="249" y="573.5" width="62" height="35.5" as="geometry"/>
                </mxCell>
                <mxCell id="30" value="" style="verticalLabelPosition=bottom;verticalAlign=top;html=1;shape=mxgraph.infographic.shadedCube;isoAngle=15;fillColor=#d5dee1;strokeColor=none;" vertex="1" parent="1">
                    <mxGeometry x="210" y="521" width="30" height="30" as="geometry"/>
                </mxCell>
                <mxCell id="31" value="" style="verticalLabelPosition=bottom;verticalAlign=top;html=1;shape=mxgraph.infographic.shadedCube;isoAngle=15;fillColor=#d5dee1;strokeColor=none;" vertex="1" parent="1">
                    <mxGeometry x="218" y="640" width="30" height="30" as="geometry"/>
                </mxCell>
                <mxCell id="32" value="" style="verticalLabelPosition=bottom;verticalAlign=top;html=1;shape=mxgraph.infographic.shadedCube;isoAngle=15;fillColor=#d5dee1;strokeColor=none;" vertex="1" parent="1">
                    <mxGeometry x="218" y="688" width="30" height="30" as="geometry"/>
                </mxCell>
                <mxCell id="36" style="edgeStyle=none;html=1;exitX=0.5;exitY=1;exitDx=0;exitDy=0;exitPerimeter=0;entryX=0.5;entryY=0;entryDx=0;entryDy=0;entryPerimeter=0;" edge="1" parent="1" source="33" target="34">
                    <mxGeometry relative="1" as="geometry"/>
                </mxCell>
                <mxCell id="37" style="edgeStyle=none;html=1;exitX=0.5;exitY=1;exitDx=0;exitDy=0;exitPerimeter=0;entryX=0.5;entryY=0;entryDx=0;entryDy=0;entryPerimeter=0;" edge="1" parent="1" source="33" target="35">
                    <mxGeometry relative="1" as="geometry"/>
                </mxCell>
                <object label="" ECS="" id="33">
                    <mxCell style="sketch=0;points=[[0,0,0],[0.25,0,0],[0.5,0,0],[0.75,0,0],[1,0,0],[0,1,0],[0.25,1,0],[0.5,1,0],[0.75,1,0],[1,1,0],[0,0.25,0],[0,0.5,0],[0,0.75,0],[1,0.25,0],[1,0.5,0],[1,0.75,0]];outlineConnect=0;fontColor=#232F3E;gradientColor=#F78E04;gradientDirection=north;fillColor=#D05C17;strokeColor=#ffffff;dashed=0;verticalLabelPosition=bottom;verticalAlign=top;align=center;html=1;fontSize=12;fontStyle=0;aspect=fixed;shape=mxgraph.aws4.resourceIcon;resIcon=mxgraph.aws4.ecs;" vertex="1" parent="1">
                        <mxGeometry x="500" y="463" width="78" height="78" as="geometry"/>
                    </mxCell>
                </object>
                <mxCell id="34" value="8" style="sketch=0;points=[[0,0,0],[0.25,0,0],[0.5,0,0],[0.75,0,0],[1,0,0],[0,1,0],[0.25,1,0],[0.5,1,0],[0.75,1,0],[1,1,0],[0,0.25,0],[0,0.5,0],[0,0.75,0],[1,0.25,0],[1,0.5,0],[1,0.75,0]];outlineConnect=0;fontColor=#232F3E;gradientColor=#F78E04;gradientDirection=north;fillColor=#D05C17;strokeColor=#ffffff;dashed=0;verticalLabelPosition=bottom;verticalAlign=top;align=center;html=1;fontSize=12;fontStyle=0;aspect=fixed;shape=mxgraph.aws4.resourceIcon;resIcon=mxgraph.aws4.ec2;" vertex="1" parent="1">
                    <mxGeometry x="430" y="607" width="78" height="78" as="geometry"/>
                </mxCell>
                <mxCell id="35" value="" style="sketch=0;points=[[0,0,0],[0.25,0,0],[0.5,0,0],[0.75,0,0],[1,0,0],[0,1,0],[0.25,1,0],[0.5,1,0],[0.75,1,0],[1,1,0],[0,0.25,0],[0,0.5,0],[0,0.75,0],[1,0.25,0],[1,0.5,0],[1,0.75,0]];outlineConnect=0;fontColor=#232F3E;gradientColor=#F78E04;gradientDirection=north;fillColor=#D05C17;strokeColor=#ffffff;dashed=0;verticalLabelPosition=bottom;verticalAlign=top;align=center;html=1;fontSize=12;fontStyle=0;aspect=fixed;shape=mxgraph.aws4.resourceIcon;resIcon=mxgraph.aws4.fargate;" vertex="1" parent="1">
                    <mxGeometry x="570" y="607" width="78" height="78" as="geometry"/>
                </mxCell>
                <mxCell id="38" value="ECS" style="text;html=1;align=center;verticalAlign=middle;resizable=0;points=[];autosize=1;strokeColor=none;fillColor=none;" vertex="1" parent="1">
                    <mxGeometry x="514" y="430" width="50" height="30" as="geometry"/>
                </mxCell>
                <mxCell id="39" value="EC2" style="text;html=1;align=center;verticalAlign=middle;resizable=0;points=[];autosize=1;strokeColor=none;fillColor=none;" vertex="1" parent="1">
                    <mxGeometry x="444" y="703" width="50" height="30" as="geometry"/>
                </mxCell>
                <mxCell id="40" value="Fargate" style="text;html=1;align=center;verticalAlign=middle;resizable=0;points=[];autosize=1;strokeColor=none;fillColor=none;" vertex="1" parent="1">
                    <mxGeometry x="574" y="703" width="70" height="30" as="geometry"/>
                </mxCell>
                <mxCell id="41" value="" style="sketch=0;points=[[0,0,0],[0.25,0,0],[0.5,0,0],[0.75,0,0],[1,0,0],[0,1,0],[0.25,1,0],[0.5,1,0],[0.75,1,0],[1,1,0],[0,0.25,0],[0,0.5,0],[0,0.75,0],[1,0.25,0],[1,0.5,0],[1,0.75,0]];outlineConnect=0;fontColor=#232F3E;gradientColor=#F78E04;gradientDirection=north;fillColor=#D05C17;strokeColor=#ffffff;dashed=0;verticalLabelPosition=bottom;verticalAlign=top;align=center;html=1;fontSize=12;fontStyle=0;aspect=fixed;shape=mxgraph.aws4.resourceIcon;resIcon=mxgraph.aws4.fargate;" vertex="1" parent="1">
                    <mxGeometry x="177" y="800" width="78" height="78" as="geometry"/>
                </mxCell>
                <mxCell id="43" value="Fargate" style="text;html=1;align=center;verticalAlign=middle;resizable=0;points=[];autosize=1;strokeColor=none;fillColor=none;" vertex="1" parent="1">
                    <mxGeometry x="181" y="890" width="70" height="30" as="geometry"/>
                </mxCell>
                <mxCell id="44" value="Amazon EKS" style="sketch=0;outlineConnect=0;fontColor=#232F3E;gradientColor=none;strokeColor=#ffffff;fillColor=#232F3E;dashed=0;verticalLabelPosition=middle;verticalAlign=bottom;align=center;html=1;whiteSpace=wrap;fontSize=10;fontStyle=1;spacing=3;shape=mxgraph.aws4.productIcon;prIcon=mxgraph.aws4.eks;" vertex="1" parent="1">
                    <mxGeometry x="30" y="560" width="80" height="100" as="geometry"/>
                </mxCell>
            </root>
        </mxGraphModel>
    </diagram>
</mxfile>